<svg width="14" height="14" viewBox="0 0 14 14" fill="none" xmlns="http://www.w3.org/2000/svg">
<g clip-path="url(#clip0_240_114)">
<path d="M12.7501 5.75H8.50012C8.36206 5.75 8.25012 5.63806 8.25012 5.5V1.25C8.25012 0.559692 7.69043 0 7.00012 0C6.30981 0 5.75012 0.559692 5.75012 1.25V5.5C5.75012 5.63806 5.63818 5.75 5.50012 5.75H1.25012C0.559814 5.75 0.00012207 6.30969 0.00012207 7C0.00012207 7.69031 0.559814 8.25 1.25012 8.25H5.50012C5.63818 8.25 5.75012 8.36194 5.75012 8.5V12.75C5.75012 13.4403 6.30981 14 7.00012 14C7.69043 14 8.25012 13.4403 8.25012 12.75V8.5C8.25012 8.36194 8.36206 8.25 8.50012 8.25H12.7501C13.4404 8.25 14.0001 7.69031 14.0001 7C14.0001 6.30969 13.4404 5.75 12.7501 5.75Z" fill="white"/>
</g>
<defs>
<clipPath id="clip0_240_114">
<rect width="14" height="14" fill="white"/>
</clipPath>
</defs>
</svg>
