<svg width="23" height="24" viewBox="0 0 23 24" fill="none" xmlns="http://www.w3.org/2000/svg">
<path d="M11.5991 10.1426C11.5991 10.3513 11.7668 10.5152 11.9717 10.5152C12.3964 10.5152 12.7391 10.8616 12.7391 11.2826C12.7391 11.4875 12.9068 11.6552 13.1117 11.6552C13.3166 11.6552 13.4842 11.4875 13.4842 11.2826C13.4842 10.4481 12.8062 9.77008 11.9717 9.77008C11.7668 9.77008 11.5991 9.93773 11.5991 10.1426ZM17.6642 11.6552C17.8729 11.6552 18.0368 11.4875 18.0368 11.2826C18.0368 7.93714 15.3172 5.21753 11.9717 5.21753C11.7668 5.21753 11.5991 5.38518 11.5991 5.59008C11.5991 5.79498 11.7668 5.96263 11.9717 5.96263C14.9074 5.96263 17.2917 8.35067 17.2917 11.2826C17.2917 11.4875 17.4593 11.6552 17.6642 11.6552Z" fill="white"/>
<path d="M15.0154 11.2827C15.0154 11.4876 15.183 11.6552 15.3879 11.6552C15.5929 11.6552 15.7605 11.4876 15.7605 11.2827C15.7605 9.19266 14.0617 7.49383 11.9717 7.49383C11.7668 7.49383 11.5991 7.66148 11.5991 7.86638C11.5991 8.07501 11.7668 8.23893 11.9717 8.23893C13.6519 8.23893 15.0154 9.60619 15.0154 11.2827ZM11.9717 2.94128C11.7668 2.94128 11.5991 3.10893 11.5991 3.31383C11.5991 3.51874 11.7668 3.68638 11.9717 3.68638C16.1629 3.68638 19.5717 7.09521 19.5717 11.2827C19.5717 11.4876 19.7356 11.6552 19.9442 11.6552C20.1491 11.6552 20.3168 11.4876 20.3168 11.2827C20.3168 6.68168 16.5727 2.94128 11.9717 2.94128ZM15.6115 15.2093L15.1234 15.4738C14.3001 15.9246 13.257 15.7719 12.5901 15.105L8.65599 11.1709C7.98913 10.504 7.83638 9.46089 8.28716 8.63383L8.55167 8.14952C8.84971 7.59815 8.95775 6.97972 8.86834 6.36128C8.78388 5.7441 8.49845 5.17193 8.05618 4.73325C7.51226 4.18932 6.78952 3.89128 6.01834 3.89128C5.24716 3.89128 4.52069 4.18932 3.97677 4.73325L3.78677 4.92697C2.78089 5.93285 2.6654 7.66521 3.45893 9.81109C4.20775 11.8601 5.71658 14.0805 7.69854 16.0625C10.7199 19.0838 14.084 20.8236 16.4981 20.8236C17.4519 20.8236 18.2603 20.5517 18.834 19.978L19.0278 19.7842C19.296 19.5162 19.5088 19.198 19.6539 18.8477C19.799 18.4973 19.8736 18.1218 19.8734 17.7427C19.8682 16.9791 19.5647 16.2477 19.0278 15.7048C18.1299 14.807 16.7254 14.6058 15.6115 15.2093Z" fill="white"/>
</svg>
