<svg width="32" height="32" viewBox="0 0 32 32" fill="none" xmlns="http://www.w3.org/2000/svg">
<path d="M2 26.9927C2 28.6536 3.34642 30 5.00731 30H9.51826C11.1792 30 12.5256 28.6536 12.5256 26.9927V22.4817C12.5256 20.8208 11.1792 19.4744 9.51826 19.4744H5.00731C3.34642 19.4744 2 20.8208 2 22.4817V26.9927Z" stroke="#515262" stroke-width="3"/>
<path d="M2 10.4525C2 12.1134 3.34642 13.4598 5.00731 13.4598H9.51826C11.1792 13.4598 12.5256 12.1134 12.5256 10.4525V5.94156C12.5256 4.28067 11.1792 2.93425 9.51826 2.93425H5.00731C3.34642 2.93425 2 4.28067 2 5.94156V10.4525Z" stroke="#515262" stroke-width="3"/>
<path d="M18.4867 6.07055C17.3123 7.24497 17.3123 9.14909 18.4867 10.3235L21.6765 13.5132C22.8509 14.6877 24.755 14.6877 25.9295 13.5132L29.1192 10.3235C30.2936 9.14909 30.2936 7.24497 29.1192 6.07055L25.9295 2.88082C24.755 1.70639 22.8509 1.70639 21.6765 2.88082L18.4867 6.07055Z" stroke="#515262" stroke-width="3"/>
<path d="M18.5402 26.9927C18.5402 28.6536 19.8866 30 21.5475 30H26.0584C27.7193 30 29.0657 28.6536 29.0657 26.9927V22.4817C29.0657 20.8208 27.7193 19.4744 26.0584 19.4744H21.5475C19.8866 19.4744 18.5402 20.8208 18.5402 22.4817V26.9927Z" stroke="#515262" stroke-width="3"/>
</svg>
