<svg width="16" height="16" viewBox="0 0 16 16" fill="none" xmlns="http://www.w3.org/2000/svg">
<path fill-rule="evenodd" clip-rule="evenodd" d="M0.825928 8C0.825928 11.9904 4.06061 15.2251 8.05103 15.2251C12.0415 15.2251 15.2761 11.9904 15.2761 8C15.2761 4.00958 12.0415 0.774902 8.05103 0.774902C4.06061 0.774902 0.825928 4.00958 0.825928 8Z" fill="#C5C5C5"/>
<path d="M11.1722 10.36L11.1722 10.36L11.1713 10.3591L9.16071 8.42181L9.16047 8.42158L8.72706 8.00944L11.1712 5.66022C11.2248 5.60872 11.2694 5.55042 11.2978 5.48503C11.3251 5.42198 11.342 5.35257 11.342 5.28202C11.342 5.21025 11.3314 5.13944 11.2971 5.07259C11.2704 5.01138 11.2322 4.94794 11.1813 4.89899L11.1813 4.89894L11.1793 4.89723C11.1268 4.85183 11.0669 4.80951 10.9997 4.78261C10.932 4.75547 10.8551 4.74529 10.7856 4.74529C10.713 4.74529 10.6419 4.76138 10.5727 4.78694L10.5727 4.78693L10.5715 4.78742C10.5043 4.81433 10.4438 4.85684 10.395 4.90381L7.55711 7.63143C7.50666 7.67993 7.46797 7.73865 7.44059 7.80181L7.44058 7.8018L7.44005 7.80312C7.41332 7.8699 7.39636 7.93896 7.39636 8.00964C7.39636 8.08019 7.41326 8.1496 7.44059 8.21265C7.46797 8.27581 7.50666 8.33453 7.55711 8.38302L10.395 11.1106L10.395 11.1107L10.396 11.1116C10.5015 11.2076 10.6392 11.2547 10.7806 11.2547C10.9243 11.2547 11.0619 11.1964 11.1612 11.101C11.2656 11.0007 11.3217 10.8726 11.322 10.7334C11.3273 10.5936 11.2711 10.4603 11.1722 10.36Z" fill="white" stroke="white" stroke-width="0.1"/>
<path d="M4.92879 5.64L4.92878 5.64001L4.92971 5.64091L6.94028 7.57819L6.94052 7.57842L7.37392 7.99056L4.92975 10.3398C4.87616 10.3913 4.83155 10.4496 4.80321 10.515C4.77587 10.578 4.75897 10.6474 4.75897 10.718C4.75897 10.7898 4.76954 10.8606 4.8039 10.9274C4.83062 10.9886 4.8688 11.0521 4.91973 11.101L4.91968 11.1011L4.92166 11.1028C4.97414 11.1482 5.03405 11.1905 5.10124 11.2174C5.16899 11.2445 5.24592 11.2547 5.31537 11.2547C5.38796 11.2547 5.45912 11.2386 5.52825 11.2131L5.52826 11.2131L5.5295 11.2126C5.59669 11.1857 5.65714 11.1432 5.70601 11.0962L8.54387 8.36857C8.59433 8.32007 8.63301 8.26135 8.66039 8.19819L8.66041 8.1982L8.66094 8.19688C8.68766 8.1301 8.70463 8.06104 8.70463 7.99036C8.70463 7.91981 8.68772 7.8504 8.66039 7.78735C8.63301 7.72419 8.59433 7.66547 8.54387 7.61698L5.70601 4.88936L5.70602 4.88934L5.70502 4.88844C5.59952 4.79237 5.46173 4.74529 5.32039 4.74529C5.17672 4.74529 5.03906 4.80357 4.93978 4.89899C4.83542 4.9993 4.77929 5.12742 4.77903 5.26657C4.77372 5.40645 4.8299 5.53966 4.92879 5.64Z" fill="white" stroke="white" stroke-width="0.1"/>
</svg>
