<svg width="36" height="36" viewBox="0 0 36 36" fill="none" xmlns="http://www.w3.org/2000/svg">
<path fill-rule="evenodd" clip-rule="evenodd" d="M10.5 16.5C10.5 15.6716 11.1716 15 12 15H24C24.8284 15 25.5 15.6716 25.5 16.5C25.5 17.3284 24.8284 18 24 18H12C11.1716 18 10.5 17.3284 10.5 16.5Z" fill="#5B5D6E"/>
<path fill-rule="evenodd" clip-rule="evenodd" d="M10.5 22.5C10.5 21.6716 11.1716 21 12 21H18C18.8284 21 19.5 21.6716 19.5 22.5C19.5 23.3284 18.8284 24 18 24H12C11.1716 24 10.5 23.3284 10.5 22.5Z" fill="#5B5D6E"/>
<path fill-rule="evenodd" clip-rule="evenodd" d="M31.5 28.5C31.5 30.9853 29.4853 33 27 33H9C6.51472 33 4.5 30.9853 4.5 28.5V7.5C4.5 5.01472 6.51472 3 9 3H24L24.0161 3.01606C25.0703 3.10538 26.0641 3.56414 26.818 4.31802L30.182 7.68198C30.9359 8.43586 31.3946 9.42967 31.4839 10.4839L31.5 10.5V28.5ZM27 30H9C8.17157 30 7.5 29.3284 7.5 28.5V7.5C7.5 6.67157 8.17157 6 9 6H22.5V9C22.5 10.6569 23.8431 12 25.5 12H28.5V28.5C28.5 29.3284 27.8284 30 27 30Z" fill="#5B5D6E"/>
</svg>
