<svg width="25" height="24" viewBox="0 0 25 24" fill="none" xmlns="http://www.w3.org/2000/svg">
<path fill-rule="evenodd" clip-rule="evenodd" d="M5.83334 22C4.17649 22 2.83334 20.6569 2.83334 19V11.3361C2.83334 10.4857 3.19431 9.67518 3.82645 9.10625L10.8264 2.80625C11.9674 1.77943 13.6993 1.77943 14.8402 2.80625L21.8402 9.10625C22.4724 9.67518 22.8333 10.4857 22.8333 11.3361V19C22.8333 20.6569 21.4902 22 19.8333 22H5.83334ZM20.8333 11.3361V19C20.8333 19.5523 20.3856 20 19.8333 20H16.8333V15C16.8333 13.3432 15.4902 12 13.8333 12H11.8333C10.1765 12 8.83334 13.3432 8.83334 15V20H5.83334C5.28106 20 4.83334 19.5523 4.83334 19V11.3361C4.83334 11.0526 4.95366 10.7825 5.16438 10.5928L12.1644 4.29284C12.5447 3.95056 13.122 3.95056 13.5023 4.29284L20.5023 10.5928C20.713 10.7825 20.8333 11.0526 20.8333 11.3361ZM10.8333 20V15C10.8333 14.4478 11.2811 14 11.8333 14H13.8333C14.3856 14 14.8333 14.4478 14.8333 15V20H10.8333Z" fill="#D1D3D4"/>
</svg>
