<svg width="23" height="23" viewBox="0 0 23 23" fill="none" xmlns="http://www.w3.org/2000/svg">
<path d="M17.6481 4.1873C17.2917 4.1873 16.9499 4.32897 16.6979 4.58097C16.4459 4.83296 16.3043 5.1747 16.3043 5.53107C16.3043 5.88745 16.4459 6.22918 16.6979 6.48117C16.9499 6.73317 17.2917 6.87484 17.6481 6.87484C18.0045 6.87484 18.3463 6.73317 18.5983 6.48117C18.8503 6.22918 18.9919 5.88745 18.9919 5.53107C18.9919 5.1747 18.8503 4.83296 18.5983 4.58097C18.3463 4.32897 18.0045 4.1873 17.6481 4.1873Z" fill="#686868"/>
<path d="M11.5565 5.97898C10.0603 5.98092 8.62583 6.57624 7.56783 7.63425C6.50982 8.69226 5.9146 10.1266 5.91266 11.6228C5.9146 13.1191 6.50982 14.5535 7.56783 15.6116C8.62583 16.6696 10.0603 17.2647 11.5565 17.2666C13.0528 17.2647 14.4872 16.6696 15.5452 15.6116C16.6032 14.5535 17.1984 13.1191 17.2003 11.6228C17.1984 10.1266 16.6032 8.69226 15.5452 7.63425C14.4872 6.57624 13.0528 5.98092 11.5565 5.97898ZM11.5565 15.241C10.5969 15.241 9.67658 14.8599 8.99803 14.1813C8.31949 13.5028 7.93828 12.5824 7.93828 11.6228C7.93828 10.6632 8.31949 9.74284 8.99803 9.06429C9.67658 8.38574 10.5969 8.00462 11.5565 8.00462C12.5161 8.00462 13.4364 8.38574 14.1149 9.06429C14.7935 9.74284 15.1747 10.6632 15.1747 11.6228C15.1747 12.5824 14.7935 13.5028 14.1149 14.1813C13.4364 14.8599 12.5161 15.241 11.5565 15.241Z" fill="#686868"/>
<path d="M16.0455 23H6.88818C5.06192 22.9981 3.311 22.272 2.01964 20.981C0.728272 19.6901 0.00194387 17.9396 0 16.1139V6.95958C-1.03634e-06 5.13263 0.725462 3.38038 2.01704 2.08784C3.30861 0.795306 5.06065 0.0682908 6.88818 0.0663452H16.0455C17.8724 0.07023 19.6233 0.797877 20.9145 2.08999C22.2056 3.38211 22.9317 5.13323 22.9337 6.95958V16.1139C22.9317 17.9396 22.2054 19.6901 20.914 20.981C19.6227 22.272 17.8717 22.9981 16.0455 23ZM6.88818 2.22459C5.63197 2.22459 4.42716 2.72346 3.53889 3.61145C2.65061 4.49944 2.15159 5.70377 2.15159 6.95958V16.1139C2.15353 17.3685 2.65342 18.571 3.54149 19.4574C4.42955 20.3438 5.63325 20.8416 6.88818 20.8416H16.0455C17.2991 20.8396 18.5009 20.3411 19.3873 19.4549C20.2738 18.5687 20.7727 17.3672 20.7746 16.1139V6.95958C20.7746 5.70504 20.2766 4.50174 19.3899 3.61396C18.5032 2.72618 17.3004 2.22654 16.0455 2.22459H6.88818Z" fill="#686868"/>
</svg>
