<svg width="95" height="103" viewBox="0 0 95 103" fill="none" xmlns="http://www.w3.org/2000/svg">
<g clip-path="url(#clip0_19_6734)">
<path fill-rule="evenodd" clip-rule="evenodd" d="M26.4927 19.6981C18.5395 23.612 11.8429 29.67 7.16082 37.1863C2.47872 44.7026 -0.00173991 53.377 6.55815e-05 62.2277C-0.00347842 70.3107 2.065 78.2601 6.00882 85.3198C9.95263 92.3796 15.6407 98.3147 22.5316 102.561V63.9462L35.0175 56.7491L47.5227 49.5844L60.0086 56.775L72.4878 63.972V102.587C79.3788 98.3405 85.0668 92.4054 89.0106 85.3457C92.9544 78.286 95.0229 70.3365 95.0194 62.2535C95.0241 53.3973 92.5436 44.7167 87.8589 37.1954C83.1743 29.6741 76.4729 23.6128 68.5138 19.6981V-0.0258789H26.4927V19.6981Z" fill="#686868"/>
<path fill-rule="evenodd" clip-rule="evenodd" d="M63.8339 74.7676L47.5033 65.3546L31.1661 74.7676V93.5935L47.5033 103L63.8339 93.5871V74.7676Z" fill="#F4881C"/>
</g>
<defs>
<clipPath id="clip0_19_6734">
<rect width="95" height="103" fill="white"/>
</clipPath>
</defs>
</svg>
