<svg width="32" height="32" viewBox="0 0 32 32" fill="none" xmlns="http://www.w3.org/2000/svg">
<path fill-rule="evenodd" clip-rule="evenodd" d="M2.66667 22.1279C2.66667 21.6201 2.87294 21.1341 3.23818 20.7814L4.61012 19.4563C5.13238 18.9518 5.42637 18.2563 5.42419 17.5302L5.41157 13.3262C5.39391 7.44427 10.1572 2.66669 16.0391 2.66669C21.9085 2.66669 26.6667 7.42481 26.6667 13.2942L26.6667 17.5621C26.6667 18.2694 26.9476 18.9476 27.4477 19.4477L28.781 20.7811C29.1347 21.1347 29.3333 21.6143 29.3333 22.1144C29.3333 23.1558 28.4891 24 27.4477 24H21.3333C21.3333 26.9455 18.9455 29.3334 16 29.3334C13.0545 29.3334 10.6667 26.9455 10.6667 24H4.53877C3.50484 24 2.66667 23.1618 2.66667 22.1279ZM13.3333 24C13.3333 25.4728 14.5272 26.6667 16 26.6667C17.4728 26.6667 18.6667 25.4728 18.6667 24H13.3333ZM24 17.5621C24 18.9766 24.5619 20.3332 25.5621 21.3334L6.50467 21.3334C7.52296 20.328 8.09514 18.9548 8.09084 17.5222L8.07822 13.3181C8.06499 8.91215 11.6331 5.33335 16.0391 5.33335C20.4358 5.33335 24 8.89757 24 13.2942L24 17.5621Z" fill="#686868"/>
<circle cx="24" cy="8" r="7" fill="#F4881C" stroke="white" stroke-width="2"/>
</svg>
