<svg width="27" height="26" viewBox="0 0 27 26" fill="none" xmlns="http://www.w3.org/2000/svg">
<path fill-rule="evenodd" clip-rule="evenodd" d="M14.5706 5.27825L8.07058 6.90325C7.58831 7.02382 7.24999 7.45713 7.24999 7.95424V21.6667H15.9167V10.8334V8.66672V6.32924C15.9167 5.62445 15.2543 5.10731 14.5706 5.27825ZM18.0833 10.8334V21.6667H20.25V11.9167C20.25 11.3184 19.765 10.8334 19.1667 10.8334H18.0833ZM22.4167 23.8334H23.5C24.0983 23.8334 24.5833 23.3484 24.5833 22.75C24.5833 22.1517 24.0983 21.6667 23.5 21.6667H22.4167V11.9167C22.4167 10.1218 20.9616 8.66672 19.1667 8.66672H18.0833V6.32924C18.0833 4.21488 16.0963 2.66347 14.0451 3.17627L7.54508 4.80128C6.09829 5.16297 5.08332 6.46292 5.08332 7.95424V21.6667H3.99999C3.40168 21.6667 2.91666 22.1517 2.91666 22.75C2.91666 23.3484 3.40168 23.8334 3.99999 23.8334H5.08332H7.24999H15.9167H18.0833H20.25H22.4167Z" fill="white"/>
<path fill-rule="evenodd" clip-rule="evenodd" d="M9.41666 18.4167C9.41666 17.8184 9.90168 17.3334 10.5 17.3334H12.6667C13.265 17.3334 13.75 17.8184 13.75 18.4167C13.75 19.015 13.265 19.5 12.6667 19.5H10.5C9.90168 19.5 9.41666 19.015 9.41666 18.4167Z" fill="white"/>
<path fill-rule="evenodd" clip-rule="evenodd" d="M9.41666 14.0833C9.41666 13.485 9.90168 13 10.5 13H12.6667C13.265 13 13.75 13.485 13.75 14.0833C13.75 14.6816 13.265 15.1667 12.6667 15.1667H10.5C9.90168 15.1667 9.41666 14.6816 9.41666 14.0833Z" fill="white"/>
<path fill-rule="evenodd" clip-rule="evenodd" d="M9.41666 9.74996C9.41666 9.15165 9.90168 8.66663 10.5 8.66663H12.6667C13.265 8.66663 13.75 9.15165 13.75 9.74996C13.75 10.3483 13.265 10.8333 12.6667 10.8333H10.5C9.90168 10.8333 9.41666 10.3483 9.41666 9.74996Z" fill="white"/>
</svg>
