<svg width="29" height="29" viewBox="0 0 29 29" fill="none" xmlns="http://www.w3.org/2000/svg">
<path d="M1.5 24.05C1.5 22.3791 2.16375 20.7767 3.34523 19.5952C4.52671 18.4137 6.12914 17.75 7.8 17.75H20.4C22.0709 17.75 23.6733 18.4137 24.8548 19.5952C26.0363 20.7767 26.7 22.3791 26.7 24.05C26.7 24.8854 26.3681 25.6866 25.7774 26.2774C25.1866 26.8681 24.3854 27.2 23.55 27.2H4.65C3.81457 27.2 3.01335 26.8681 2.42261 26.2774C1.83187 25.6866 1.5 24.8854 1.5 24.05Z" stroke="#686868" stroke-width="3" stroke-linejoin="round"/>
<path d="M14.1 11.45C16.7095 11.45 18.825 9.33455 18.825 6.725C18.825 4.11545 16.7095 2 14.1 2C11.4905 2 9.375 4.11545 9.375 6.725C9.375 9.33455 11.4905 11.45 14.1 11.45Z" stroke="#686868" stroke-width="3"/>
</svg>
