<svg width="27" height="27" viewBox="0 0 27 27" fill="none" xmlns="http://www.w3.org/2000/svg">
<path d="M9.45 9.7686C10.1655 10.4099 11.1132 10.8 12.15 10.8H14.85C15.8465 10.8014 16.8082 10.434 17.55 9.7686H9.45ZM9.45 9.7686C8.70823 10.434 7.74648 10.8014 6.75 10.8L9.45 9.7686ZM8.15 2.7V2.65H8.1H4.05C3.6787 2.65 3.3226 2.7975 3.06005 3.06005C2.7975 3.3226 2.65 3.6787 2.65 4.05V6.75C2.65 7.1213 2.7975 7.4774 3.06005 7.73995C3.3226 8.0025 3.6787 8.15 4.05 8.15H6.75C7.12131 8.15 7.4774 8.0025 7.73995 7.73995C8.0025 7.4774 8.15 7.1213 8.15 6.75V2.7ZM4.0635 10.75H4.0135V10.8V24.2528V24.3027H4.0635H6.75H6.8V24.2528V17.55C6.8 16.8472 7.0792 16.1731 7.57617 15.6762C8.07314 15.1792 8.74718 14.9 9.45 14.9H12.15C12.8528 14.9 13.5269 15.1792 14.0238 15.6762C14.5208 16.1731 14.8 16.8472 14.8 17.55V24.2528V24.3027H14.85H22.9676H23.0176V24.2528V10.8V10.75H22.9676H20.25C19.226 10.75 18.29 10.3647 17.5834 9.73137L17.55 9.70145L17.5166 9.73138C16.784 10.3885 15.8342 10.7514 14.8501 10.75H14.85H12.15C11.126 10.75 10.19 10.3647 9.48337 9.73137L9.44999 9.70145L9.41662 9.73138C8.68403 10.3885 7.7342 10.7514 6.75007 10.75H6.75H4.0635ZM1.36161 9.7133C0.953896 9.34401 0.626806 8.89429 0.401057 8.39228C0.168881 7.87597 0.0492139 7.31618 0.0500039 6.75007V6.75V4.05C0.0500039 2.98913 0.471431 1.97172 1.22158 1.22157C1.97172 0.471427 2.98914 0.05 4.05 0.05H22.95C24.0109 0.05 25.0283 0.471427 25.7784 1.22157C26.5286 1.97172 26.95 2.98913 26.95 4.05V6.75C26.95 7.92603 26.4434 8.98463 25.634 9.71667L25.6176 9.73155V9.75375V24.2528C25.6176 24.9556 25.3384 25.6296 24.8414 26.1266C24.3444 26.6236 23.6704 26.9028 22.9676 26.9028H12.6536V26.9019L12.6443 26.9036C12.4813 26.9344 12.3158 26.95 12.15 26.95H9.45C9.28417 26.95 9.1187 26.9344 8.95574 26.9036L8.95591 26.9028H8.94645H4.06485C3.36203 26.9028 2.68799 26.6236 2.19102 26.1266C1.69405 25.6296 1.41485 24.9556 1.41485 24.2528V9.78075V9.66008L1.36161 9.7133ZM12.2 17.55V17.5H12.15H9.45H9.4V17.55V24.2528V24.3027H9.45H12.15V24.2541H12.2V24.2528V24.2028V17.55ZM16.25 2.7V2.65H16.2H10.8H10.75V2.7V6.75C10.75 7.1213 10.8975 7.4774 11.1601 7.73995C11.4226 8.0025 11.7787 8.15 12.15 8.15H14.85C15.2213 8.15 15.5774 8.0025 15.84 7.73995C16.1025 7.4774 16.25 7.1213 16.25 6.75V2.7ZM18.9 2.65H18.85V2.7V6.75C18.85 7.1213 18.9975 7.4774 19.2601 7.73995C19.5226 8.0025 19.8787 8.15 20.25 8.15H22.95C23.3213 8.15 23.6774 8.0025 23.94 7.73995C24.2025 7.4774 24.35 7.1213 24.35 6.75V4.05C24.35 3.6787 24.2025 3.3226 23.94 3.06005C23.6774 2.7975 23.3213 2.65 22.95 2.65H18.9ZM18.9 14.9H20.25C20.5948 14.9 20.9254 15.037 21.1692 15.2808C21.413 15.5246 21.55 15.8552 21.55 16.2V20.25C21.55 20.5948 21.413 20.9254 21.1692 21.1692C20.9254 21.413 20.5948 21.55 20.25 21.55H18.9C18.5552 21.55 18.2246 21.413 17.9808 21.1692C17.737 20.9254 17.6 20.5948 17.6 20.25V16.2C17.6 15.8552 17.737 15.5246 17.9808 15.2808C18.2246 15.037 18.5552 14.9 18.9 14.9Z" fill="#686868" stroke="white" stroke-width="0.1"/>
</svg>
