<svg width="29" height="29" viewBox="0 0 29 29" fill="none" xmlns="http://www.w3.org/2000/svg">
<path opacity="0.4" fill-rule="evenodd" clip-rule="evenodd" d="M11.4134 19.6481C11.0296 19.8509 11.0086 19.9261 10.9744 21.2213C10.9408 22.4992 10.9049 22.6596 10.5745 23.0077C10.351 23.2434 9.90823 23.4551 9.63744 23.4557C9.20325 23.4569 8.81134 23.7595 8.73805 24.1501C8.68447 24.4358 8.84334 24.8067 9.0915 24.9753C9.45715 25.2238 10.3048 25.1301 11.005 24.7638C11.4127 24.5504 12.0006 23.9753 12.237 23.5585C12.5504 23.006 12.6329 22.538 12.6329 21.3127C12.6329 20.3376 12.6221 20.213 12.5193 20.0004C12.4367 19.8299 12.3412 19.7345 12.1707 19.6519C11.882 19.5122 11.6726 19.5111 11.4134 19.6481ZM13.9907 19.6633C13.5696 19.9047 13.5711 19.8954 13.5712 22.3241C13.5712 24.7251 13.5724 24.7331 13.9517 24.9865C14.3447 25.249 14.9159 25.0952 15.1299 24.6692C15.2169 24.4962 15.2264 24.2638 15.2265 22.3241C15.2266 20.3334 15.2189 20.1566 15.1243 19.9788C14.9999 19.7452 14.6608 19.54 14.3988 19.54C14.2926 19.54 14.1089 19.5955 13.9907 19.6633ZM16.6228 19.653C16.4573 19.7349 16.3587 19.8346 16.2779 20.0015C16.1756 20.2127 16.1647 20.3392 16.1647 21.3127C16.1647 22.538 16.2472 23.006 16.5606 23.5585C16.797 23.9753 17.3849 24.5504 17.7926 24.7638C18.4929 25.1301 19.3405 25.2238 19.7061 24.9753C19.9543 24.8067 20.1132 24.4358 20.0596 24.1501C19.9863 23.7595 19.5944 23.4569 19.1602 23.4557C18.8894 23.4551 18.4466 23.2434 18.2231 23.0077C17.8928 22.6596 17.8569 22.4992 17.8232 21.2213C17.7889 19.9193 17.7683 19.8473 17.3725 19.6454C17.1034 19.5081 16.9116 19.5101 16.6228 19.653Z" fill="#181725"/>
<path fill-rule="evenodd" clip-rule="evenodd" d="M2.9855 3.67007C2.82387 3.70919 2.47896 3.84655 2.21905 3.97535C1.39443 4.38398 0.770137 5.1155 0.42899 6.07284L0.301183 6.43153L0.284407 10.9362C0.265479 16.0057 0.258085 15.8932 0.665508 16.7233C1.09379 17.596 1.9577 18.3064 2.92066 18.5777C3.10045 18.6284 3.56719 18.6758 4.06573 18.694L4.90728 18.7248L4.90811 17.5171C4.90905 16.1416 4.95778 15.8357 5.28088 15.1782C5.57865 14.5722 6.21227 13.9466 6.83872 13.6399C7.67338 13.2314 7.33863 13.2487 14.3989 13.2487C21.4592 13.2487 21.1245 13.2314 21.9591 13.6399C22.5856 13.9466 23.2192 14.5722 23.517 15.1782C23.8401 15.8357 23.8888 16.1416 23.8898 17.5171L23.8906 18.7248L24.7321 18.694C25.2307 18.6758 25.6974 18.6284 25.8772 18.5777C26.8402 18.3064 27.7041 17.596 28.1324 16.7233C28.5398 15.8932 28.5324 16.0057 28.5135 10.9362L28.4967 6.43153L28.3689 6.07284C28.0177 5.08747 27.3961 4.37184 26.5303 3.95642C26.2469 3.82045 25.8835 3.68232 25.7227 3.64937C25.2634 3.5554 3.37708 3.57532 2.9855 3.67007ZM20.393 6.87642C20.787 7.17105 20.897 7.59613 20.6775 7.97668C20.4654 8.34465 20.2942 8.39707 19.3655 8.37875C18.6658 8.36496 18.5469 8.34912 18.4189 8.2526C18.0269 7.95731 17.9632 7.43075 18.2717 7.03845C18.4781 6.77605 18.6555 6.73372 19.4858 6.74889C20.1495 6.76098 20.2592 6.77638 20.393 6.87642ZM24.3309 6.83173C24.4366 6.88476 24.5815 7.0151 24.6532 7.12133C24.8306 7.38472 24.806 7.87586 24.6045 8.09152C24.3547 8.35894 24.2279 8.39056 23.4049 8.39056C22.6991 8.39056 22.6227 8.38052 22.4502 8.2653C21.9209 7.91173 21.9675 7.12707 22.5344 6.84646C22.845 6.69272 24.0348 6.68295 24.3309 6.83173ZM8.0589 14.9619C7.51953 15.0679 6.94606 15.5239 6.71759 16.0285C6.5995 16.2893 6.58913 16.3954 6.57274 17.5097L6.55508 18.71H14.3989H22.2428L22.2251 17.5097C22.2087 16.3954 22.1984 16.2893 22.0803 16.0285C21.9347 15.707 21.5381 15.2955 21.2128 15.1285C21.0907 15.0658 20.8577 14.9892 20.6949 14.9584C20.3287 14.889 8.41351 14.8923 8.0589 14.9619Z" fill="#181725"/>
</svg>
