<svg width="18" height="17" viewBox="0 0 18 17" fill="none" xmlns="http://www.w3.org/2000/svg">
<path d="M8.12737 13.0935C8.85114 13.0935 9.56781 12.949 10.2365 12.6684C10.9052 12.3877 11.5127 11.9763 12.0245 11.4577C12.5363 10.9391 12.9422 10.3235 13.2192 9.64587C13.4962 8.96829 13.6387 8.24206 13.6387 7.50866C13.6387 6.77525 13.4962 6.04902 13.2192 5.37144C12.9422 4.69386 12.5363 4.07819 12.0245 3.5596C11.5127 3.041 10.9052 2.62962 10.2365 2.34896C9.56781 2.0683 8.85114 1.92384 8.12737 1.92384C6.66566 1.92384 5.26383 2.51224 4.23024 3.5596C3.19666 4.60695 2.616 6.02747 2.616 7.50866C2.616 8.98984 3.19666 10.4104 4.23024 11.4577C5.26383 12.5051 6.66566 13.0935 8.12737 13.0935ZM13.9327 12.0752L17.2211 15.4074C17.3088 15.4934 17.3787 15.5961 17.4268 15.7097C17.4748 15.8233 17.5001 15.9455 17.5011 16.0691C17.502 16.1927 17.4787 16.3152 17.4324 16.4296C17.3862 16.5439 17.3179 16.6478 17.2316 16.7351C17.1453 16.8225 17.0427 16.8915 16.9298 16.9382C16.8168 16.985 16.6959 17.0084 16.5739 17.0073C16.4519 17.0061 16.3314 16.9803 16.2194 16.9315C16.1074 16.8826 16.006 16.8116 15.9214 16.7227L12.6329 13.3904C11.1563 14.5519 9.29835 15.0995 7.43731 14.9218C5.57626 14.744 3.85202 13.8542 2.61559 12.4336C1.37915 11.0129 0.723471 9.16823 0.782021 7.27495C0.840571 5.38168 1.60895 3.58218 2.93074 2.24278C4.25253 0.903374 6.02837 0.124755 7.89674 0.0654247C9.76512 0.00609437 11.5856 0.670512 12.9875 1.92342C14.3895 3.17633 15.2676 4.92355 15.443 6.80939C15.6184 8.69524 15.078 10.5779 13.9318 12.0742L13.9327 12.0752Z" fill="#181B19"/>
</svg>
