<svg width="231" height="114" viewBox="0 0 231 114" fill="none" xmlns="http://www.w3.org/2000/svg">
<g clip-path="url(#clip0_19_6737)">
<path d="M88.6823 67.9501C87.2144 71.1336 85.8243 74.135 84.4003 77.2207C83.9167 76.9881 83.5649 76.8363 83.2301 76.6542C79.5637 74.6611 75.7249 73.1402 71.5885 72.4151C69.9163 72.0835 68.1907 72.1296 66.5387 72.55C64.9322 72.9884 63.7449 73.899 63.4338 75.5851C63.2506 76.422 63.3196 77.2942 63.6319 78.0922C63.9443 78.8902 64.486 79.5784 65.1893 80.0704C66.7113 81.2305 68.4734 81.9185 70.2863 82.5053C74.3077 83.807 78.4239 84.8659 82.1545 86.9265C86.0474 89.0882 88.3034 92.3223 88.8344 96.7873C89.1895 99.7381 88.8751 102.564 87.5628 105.218C85.8311 108.736 82.9494 111.026 79.3169 112.361C74.1522 114.26 68.859 114.361 63.515 113.231C58.3325 112.173 53.4688 109.924 49.3096 106.665C49.1135 106.513 48.9308 106.328 48.6332 106.082L52.8981 97.1313C53.133 97.2448 53.3591 97.3756 53.5746 97.5225C56.8038 100.233 60.5533 102.258 64.5939 103.475C67.4384 104.352 70.3607 104.749 73.3235 103.987C75.2108 103.505 76.5434 102.396 76.8749 100.433C77.2368 98.3015 76.5062 96.5546 74.6425 95.3405C72.6572 94.0456 70.4317 93.334 68.1791 92.6899C64.6176 91.6781 61.0223 90.7305 57.7923 88.8386C53.8452 86.5285 51.7043 83.1056 51.4777 78.5191C51.3559 75.9156 51.6942 73.4268 52.9151 71.0999C54.7246 67.6432 57.5962 65.441 61.2084 64.1325C65.744 62.4936 70.3979 62.3384 75.133 63.0095C78.2514 63.4643 81.2937 64.3378 84.1771 65.6063C85.6686 66.22 87.0723 67.08 88.6823 67.9501Z" fill="#686868"/>
<path d="M94.2528 106.031L98.5348 97.0875C98.802 97.2492 99.0605 97.4249 99.3093 97.6136C102.5 100.24 106.178 102.215 110.132 103.428C113.001 104.321 115.953 104.739 118.943 103.96C120.851 103.461 122.207 102.321 122.518 100.322C122.856 98.1397 122.014 96.4198 120.11 95.2293C118.152 94.0051 115.987 93.2902 113.789 92.6629C110.224 91.6512 106.625 90.7171 103.402 88.8117C99.5089 86.5117 97.3137 83.1629 97.1074 78.5697C96.9856 75.9325 97.2935 73.4167 98.528 71.0594C100.321 67.6365 103.175 65.4444 106.75 64.1258C110.609 62.7027 114.597 62.389 118.676 62.7431C122.514 63.074 126.272 64.0298 129.8 65.5726C131.173 66.1695 132.449 66.989 133.764 67.7107C133.913 67.7882 134.055 67.8827 134.268 68.0142L130.03 77.1803C129.574 76.9746 129.215 76.8431 128.887 76.6643C125.166 74.6241 121.287 73.0896 117.086 72.3814C115.518 72.0851 113.906 72.1184 112.351 72.4792C110.721 72.8805 109.429 73.7169 109.084 75.4402C108.722 77.2579 109.236 78.8631 110.775 80.0199C112.314 81.1766 114.052 81.8814 115.869 82.4682C119.867 83.7565 123.952 84.8289 127.673 86.8523C131.704 89.0511 133.974 92.3999 134.478 96.9897C134.816 99.9506 134.42 102.767 133.064 105.4C131.15 109.11 127.991 111.376 124.077 112.641C119.004 114.277 113.887 114.297 108.736 113.14C103.763 112.052 99.0955 109.875 95.0713 106.766C94.8176 106.557 94.5843 106.324 94.2528 106.031Z" fill="#686868"/>
<path d="M11.3137 63.3705C11.3408 63.8561 11.3847 64.2877 11.3847 64.7194C11.3847 73.8248 11.3847 82.9303 11.3847 92.0357C11.3847 94.3761 11.6992 96.6154 12.7815 98.7231C13.6763 100.529 15.1268 102.003 16.9213 102.928C20.6113 104.831 24.4909 105.161 28.5428 104.412C31.5496 103.856 34.0084 102.257 36.4166 100.548C38.6681 99.0041 40.7386 97.2134 42.5892 95.2091C42.7474 95.0508 42.955 94.9509 43.1777 94.9258C43.2031 95.2806 43.2031 95.6367 43.1777 95.9915C42.0853 103.748 38.3615 109.565 30.7683 112.452C26.9227 113.916 22.9283 114.189 18.846 113.872C15.8074 113.658 12.848 112.809 10.1603 111.38C4.97196 108.611 1.95505 104.2 0.652889 98.5444C0.196885 96.4567 -0.0176419 94.3238 0.0135998 92.1875C0.0316384 82.9112 0.0316384 73.636 0.0135998 64.3619V63.3502L11.3137 63.3705Z" fill="#686868"/>
<path d="M158.881 63.1951H170.898C177.544 79.8648 184.18 96.5209 190.853 113.282H178.758L158.881 63.1951Z" fill="#F4881C"/>
<path d="M138.509 113.292C144.367 98.9018 150.161 84.6737 155.955 70.4625L156.175 70.4153C157.839 74.5903 159.504 78.772 161.17 82.9605L156.405 95.8228C159.606 97.651 163.356 98.2822 166.981 97.6034L170.735 107.046C164.613 108.442 158.742 107.967 152.857 105.788L150.05 113.298L138.509 113.292Z" fill="#686868"/>
<path d="M205.173 113.241V78.3236C208.255 75.4098 213.23 76 216.399 78.3236V113.241H205.173Z" fill="#686868"/>
<path d="M190.795 72.5467V63.2052H231V72.5467H190.795Z" fill="#686868"/>
<path d="M32.1685 94.5919V63.3535H43.3062C43.3333 63.6705 43.3807 63.9909 43.3807 64.3113C43.3807 70.2534 43.3807 76.1955 43.3807 82.1377C43.4071 84.7238 42.4148 87.217 40.6173 89.0814C38.4135 91.5342 35.6337 93.4033 32.527 94.5211C32.409 94.5516 32.2892 94.5753 32.1685 94.5919Z" fill="#F4881C"/>
<path fill-rule="evenodd" clip-rule="evenodd" d="M104.521 10.2823C100.365 12.3254 96.8661 15.4877 94.4195 19.4112C91.9729 23.3347 90.6768 27.8627 90.6777 32.4827C90.6759 36.702 91.7567 40.8517 93.8175 44.5368C95.8783 48.222 98.8505 51.3201 102.451 53.5365V33.3798L108.976 29.6229L115.51 25.883L122.034 29.6364L128.555 33.3933V53.55C132.156 51.3336 135.128 48.2355 137.189 44.5503C139.25 40.8651 140.331 36.7155 140.329 32.4962C140.331 27.8733 139.035 23.342 136.587 19.4159C134.139 15.4898 130.638 12.3258 126.479 10.2823V-0.0135498H104.521V10.2823Z" fill="#686868"/>
<path fill-rule="evenodd" clip-rule="evenodd" d="M124.033 39.0286L115.5 34.115L106.967 39.0286V48.8557L115.5 53.7659L124.033 48.8523V39.0286Z" fill="#F4881C"/>
</g>
<defs>
<clipPath id="clip0_19_6737">
<rect width="231" height="114" fill="white"/>
</clipPath>
</defs>
</svg>
