<svg width="27" height="27" viewBox="0 0 27 27" fill="none" xmlns="http://www.w3.org/2000/svg">
<path fill-rule="evenodd" clip-rule="evenodd" d="M9.97806 2.64229C9.96425 2.64202 9.95047 2.64202 9.93673 2.64229H7.84833C6.50798 2.64229 5.30511 3.46513 4.81931 4.71434L2.88237 9.69504C2.41179 10.9051 2.92881 12.2322 4.0001 12.8388V21.0589C4.0001 22.8539 5.45518 24.3089 7.2501 24.3089H20.2501C22.045 24.3089 23.5001 22.8539 23.5001 21.0589V12.8388C24.5714 12.2322 25.0884 10.9051 24.6178 9.69504L22.6809 4.71434C22.1951 3.46513 20.9922 2.64229 19.6519 2.64229H17.5635C17.5498 2.64202 17.536 2.64202 17.5222 2.64229H9.97806ZM21.3334 13.1923C20.8475 13.1353 20.3713 12.9945 19.9268 12.7723L19.1673 12.3925L19.1662 12.3925L18.4701 12.6709C17.1787 13.1875 15.7381 13.1875 14.4467 12.6709L13.7501 12.3923L13.0535 12.6709C11.7621 13.1875 10.3215 13.1875 9.03007 12.6709L8.33407 12.3925L8.33294 12.3925L7.57341 12.7723C7.12892 12.9945 6.65268 13.1353 6.16677 13.1923V21.0589C6.16677 21.6572 6.65179 22.1423 7.2501 22.1423H9.41677V18.8923C9.41677 17.0974 10.8718 15.6423 12.6668 15.6423H14.8334C16.6284 15.6423 18.0834 17.0974 18.0834 18.8923V22.1423H20.2501C20.8484 22.1423 21.3334 21.6572 21.3334 21.0589V13.1923ZM20.1357 10.4544C20.1194 10.4462 20.103 10.4382 20.0865 10.4305L18.8819 4.80895H19.6519C20.0987 4.80895 20.4996 5.08324 20.6616 5.49964L22.5985 10.4803C22.6823 10.6959 22.558 10.9361 22.3337 10.9922C21.8509 11.1129 21.3409 11.0569 20.8958 10.8344L20.1357 10.4544ZM17.8996 10.5656L16.666 4.80895H14.8334V10.492L15.2514 10.6592C16.0263 10.9692 16.8906 10.9692 17.6655 10.6592L17.8996 10.5656ZM12.6668 4.80895H10.8343L9.60068 10.5656L9.83475 10.6592C10.6096 10.9692 11.474 10.9692 12.2488 10.6592L12.6668 10.4921V4.80895ZM7.41378 10.4305L8.6184 4.80895H7.84833C7.40154 4.80895 7.00059 5.08324 6.83865 5.49964L4.90172 10.4803C4.81788 10.6959 4.94217 10.9361 5.16656 10.9922C5.64933 11.1129 6.15935 11.0569 6.60445 10.8344L7.36448 10.4544C7.38083 10.4462 7.39727 10.4382 7.41378 10.4305ZM15.9168 18.8923V22.1423H11.5834V18.8923C11.5834 18.294 12.0685 17.809 12.6668 17.809H14.8334C15.4317 17.809 15.9168 18.294 15.9168 18.8923Z" fill="#D1D3D4"/>
</svg>
